<svg viewBox="-2.0270270270270268 -0.5499999999999989 104.32432432432432 100.44" version="1.1" xmlns="http://www.w3.org/2000/svg" style="max-height: 500px" width="104.32432432432432" height="100.44">
 <path d="m89.555 47.117-10.031-20.059c-1.5781-3.1836-4.832-5.1953-8.3867-5.1836h-42.273c-3.5547-0.011719-6.8086 2-8.3867 5.1836l-10.031 20.059c-4.2734 0.96094-7.3125 4.7539-7.3203 9.1328v18.75c0.011719 3.9609 2.5156 7.4844 6.25 8.8008v9.9492c0 0.82812 0.32812 1.625 0.91406 2.2109 0.58594 0.58594 1.3828 0.91406 2.2109 0.91406h9.375c0.82812 0 1.625-0.32812 2.2109-0.91406 0.58594-0.58594 0.91406-1.3828 0.91406-2.2109v-9.375h50v9.375c0 0.82812 0.32812 1.625 0.91406 2.2109 0.58594 0.58594 1.3828 0.91406 2.2109 0.91406h9.375c0.82812 0 1.625-0.32812 2.2109-0.91406 0.58594-0.58594 0.91406-1.3828 0.91406-2.2109v-9.9492c3.7344-1.3164 6.2383-4.8398 6.25-8.8008v-18.75c-0.007812-4.3789-3.0469-8.1719-7.3203-9.1328zm-63.488-17.266c0.52734-1.0586 1.6094-1.7305 2.7969-1.7266h42.273c1.1875-0.003906 2.2695 0.66797 2.7969 1.7266l8.5078 17.023h-64.883zm64.559 45.148c0 1.7266-1.3984 3.125-3.125 3.125h-75c-1.7266 0-3.125-1.3984-3.125-3.125v-18.75c0-1.7266 1.3984-3.125 3.125-3.125h75c1.7266 0 3.125 1.3984 3.125 3.125zm-9.375-9.375c0 1.8945-1.1406 3.6055-2.8945 4.332-1.75 0.72266-3.7656 0.32422-5.1094-1.0156-1.3398-1.3438-1.7383-3.3594-1.0156-5.1094 0.72656-1.7539 2.4375-2.8945 4.332-2.8945 2.5898 0 4.6875 2.0977 4.6875 4.6875zm-53.125 0c0 1.8945-1.1406 3.6055-2.8945 4.332-1.75 0.72266-3.7656 0.32422-5.1094-1.0156-1.3398-1.3438-1.7383-3.3594-1.0156-5.1094 0.72656-1.7539 2.4375-2.8945 4.332-2.8945 2.5898 0 4.6875 2.0977 4.6875 4.6875zm34.375 0c0 0.82812-0.32812 1.625-0.91406 2.2109-0.58594 0.58594-1.3828 0.91406-2.2109 0.91406h-18.75c-1.7266 0-3.125-1.3984-3.125-3.125s1.3984-3.125 3.125-3.125h18.75c0.82812 0 1.625 0.32812 2.2109 0.91406 0.58594 0.58594 0.91406 1.3828 0.91406 2.2109zm-34.047-54.523 3.125-6.25c0.37109-0.74219 1.0195-1.3086 1.8086-1.5703 0.78516-0.26562 1.6484-0.20312 2.3906 0.16797 0.74219 0.37109 1.3047 1.0195 1.5664 1.8086 0.26172 0.78906 0.19922 1.6484-0.17188 2.3906l-3.125 6.25c-0.77734 1.5391-2.6484 2.1602-4.1914 1.3906-1.543-0.76953-2.168-2.6445-1.4023-4.1875zm18.75 0 3.125-6.25c0.37109-0.74219 1.0195-1.3086 1.8086-1.5703 0.78516-0.26562 1.6484-0.20312 2.3906 0.16797 0.74219 0.37109 1.3047 1.0195 1.5664 1.8086 0.26172 0.78906 0.19922 1.6484-0.17188 2.3906l-3.125 6.25c-0.77734 1.5391-2.6484 2.1602-4.1914 1.3906-1.543-0.76953-2.168-2.6445-1.4023-4.1875zm18.75 0 3.125-6.25c0.77734-1.5391 2.6484-2.1602 4.1914-1.3906 1.543 0.76953 2.168 2.6445 1.4023 4.1875l-3.125 6.25c-0.77734 1.5391-2.6484 2.1602-4.1914 1.3906-1.543-0.76953-2.168-2.6445-1.4023-4.1875z"/>
<text fill="#000000" font-family="Arbeit Regular, Helvetica, Arial-Unicode, Arial, Sans-serif" font-weight="bold" font-size="5.0" y="117.5" x="0.0">Created by Ricons</text><text fill="#000000" font-family="Arbeit Regular, Helvetica, Arial-Unicode, Arial, Sans-serif" font-weight="bold" font-size="5.0" y="122.5" x="0.0">from Noun Project</text></svg>