<svg viewBox="-2.0270270270270268 -0.5499999999999989 104.32432432432432 100.44" version="1.1" xmlns="http://www.w3.org/2000/svg" style="max-height: 500px" width="104.32432432432432" height="100.44">
 <path d="m56.25 65.625h-14.062c-5.0703 0-10.277 0.74219-14.961 1.7266l-11.883-33c-0.28516-0.78906-0.76953-1.4688-1.3828-1.9844 1.0312-1.1172 1.6641-2.6016 1.6641-4.2383v-12.5c0-3.4453-2.8047-6.25-6.25-6.25h-4.6875c-2.5859 0-4.6875 2.1016-4.6875 4.6875v15.625c0 1.1992 0.45312 2.293 1.1953 3.125-0.046874 0.050782-0.089843 0.10156-0.13281 0.15625-0.89453 1.0898-1.25 2.5078-0.96875 3.8906l7.7852 38.93c-0.039062 0.25-0.0625 0.50781-0.0625 0.77344v3.125c0 2.0391 1.3047 3.7734 3.125 4.418v8.082c0 0.86328 0.69922 1.5625 1.5625 1.5625h37.5c0.86328 0 1.5625-0.69922 1.5625-1.5625v-7.8125h4.6875c2.5859 0 4.6875-2.1016 4.6875-4.6875v-9.375c0-2.5859-2.1016-4.6875-4.6875-4.6875zm-53.125-51.562c0-0.85938 0.70312-1.5625 1.5625-1.5625h4.6875c1.7227 0 3.125 1.4023 3.125 3.125v12.5c0 1.7227-1.4023 3.125-3.125 3.125h-4.6875c-0.85938 0-1.5625-0.70312-1.5625-1.5625zm7.6328 58.148c-0.12891 0.050781-0.25391 0.10937-0.375 0.17187l-7.2266-36.141c-0.09375-0.46094 0.023438-0.93359 0.32422-1.2969 0.29688-0.36328 0.73828-0.57031 1.2109-0.57031h6.25c0.65625 0 1.25 0.41406 1.4688 1.0312l11.75 32.641c-7.4688 1.8125-13.008 4.0078-13.398 4.1641zm37.68 18.414h-34.375v-6.25h34.375zm9.375-10.938c0 0.85938-0.70312 1.5625-1.5625 1.5625h-43.75c-0.85938 0-1.5625-0.70312-1.5625-1.5625v-3.125c0-0.64062 0.38281-1.2109 0.98438-1.4531 0.64844-0.25781 16.062-6.3594 30.266-6.3594h14.062c0.85938 0 1.5625 0.70312 1.5625 1.5625z"/>
 <path d="m98.438 48.438h-5.2266c-2.0859 0-4.0469 0.8125-5.5234 2.2891l-1.1055 1.1055-9.6406-9.6406 7.625-7.625c0.88281-0.88281 1.375-2.0625 1.375-3.3125s-0.48828-2.4297-1.375-3.3125c-0.88281-0.88281-2.0625-1.375-3.3125-1.375-1.2539 0-2.4297 0.48828-3.3125 1.375l-21.875 21.875c-0.88281 0.88281-1.375 2.0625-1.375 3.3125 0 1.2539 0.48828 2.4297 1.375 3.3125 0.88281 0.88281 2.0625 1.375 3.3125 1.375 1.2539 0 2.4297-0.48828 3.3125-1.375l7.625-7.625 9.6406 9.6406-5.793 5.793c-1.4766 1.4766-2.2891 3.4375-2.2891 5.5234v22.414c0 0.86328 0.69922 1.5625 1.5625 1.5625h25c0.86328 0 1.5625-0.69922 1.5625-1.5625v-42.188c0-0.86328-0.69922-1.5625-1.5625-1.5625zm-37.957 5.793c-0.29688 0.29688-0.6875 0.45703-1.1055 0.45703s-0.8125-0.16406-1.1055-0.45703c-0.29688-0.29297-0.45703-0.6875-0.45703-1.1055s0.16406-0.8125 0.45703-1.1055l21.875-21.875c0.29688-0.29688 0.6875-0.45703 1.1055-0.45703s0.8125 0.16406 1.1055 0.45703c0.29688 0.29688 0.45703 0.6875 0.45703 1.1055s-0.16406 0.8125-0.45703 1.1055zm12.043-7.6211 2.2109-2.2109 9.6406 9.6406-2.2109 2.2109zm24.352 44.016h-21.875v-20.852c0-1.25 0.48828-2.4297 1.375-3.3125l13.523-13.523c0.88281-0.88281 2.0625-1.375 3.3125-1.375h3.6641z"/>
 <path d="m50 23.438c0 0.86328 0.69922 1.5625 1.5625 1.5625 2.5859 0 4.6875 2.1016 4.6875 4.6875 0 0.86328 0.69922 1.5625 1.5625 1.5625s1.5625-0.69922 1.5625-1.5625c0-2.5859 2.1016-4.6875 4.6875-4.6875 0.86328 0 1.5625-0.69922 1.5625-1.5625s-0.69922-1.5625-1.5625-1.5625c-2.5859 0-4.6875-2.1016-4.6875-4.6875 0-0.86328-0.69922-1.5625-1.5625-1.5625s-1.5625 0.69922-1.5625 1.5625c0 2.5859-2.1016 4.6875-4.6875 4.6875-0.86328 0-1.5625 0.69922-1.5625 1.5625zm7.8125-1.5664c0.44531 0.59375 0.97656 1.1211 1.5664 1.5664-0.59375 0.44531-1.1211 0.97656-1.5664 1.5664-0.44531-0.59375-0.97656-1.1211-1.5664-1.5664 0.59375-0.44531 1.1211-0.97656 1.5664-1.5664z"/>
 <path d="m31.25 18.75c4.3086 0 7.8125 3.5039 7.8125 7.8125 0 0.86328 0.69922 1.5625 1.5625 1.5625s1.5625-0.69922 1.5625-1.5625c0-4.3086 3.5039-7.8125 7.8125-7.8125 0.86328 0 1.5625-0.69922 1.5625-1.5625s-0.69922-1.5625-1.5625-1.5625c-4.3086 0-7.8125-3.5039-7.8125-7.8125 0-0.86328-0.69922-1.5625-1.5625-1.5625s-1.5625 0.69922-1.5625 1.5625c0 4.3086-3.5039 7.8125-7.8125 7.8125-0.86328 0-1.5625 0.69922-1.5625 1.5625s0.69922 1.5625 1.5625 1.5625zm9.375-5.3086c0.92578 1.5312 2.2109 2.8203 3.7461 3.7461-1.5312 0.92578-2.8203 2.2109-3.7461 3.7461-0.92578-1.5312-2.2109-2.8203-3.7461-3.7461 1.5312-0.92578 2.8203-2.2109 3.7461-3.7461z"/>
<text fill="#000000" font-family="Arbeit Regular, Helvetica, Arial-Unicode, Arial, Sans-serif" font-weight="bold" font-size="5.0" y="117.5" x="0.0">Created by Edy Subiyanto</text><text fill="#000000" font-family="Arbeit Regular, Helvetica, Arial-Unicode, Arial, Sans-serif" font-weight="bold" font-size="5.0" y="122.5" x="0.0">from Noun Project</text></svg>