<svg viewBox="4.72972972972973 5.66 91.08108108108108 88.83" version="1.1" xmlns="http://www.w3.org/2000/svg" style="max-height: 500px" width="91.08108108108108" height="88.83">
 <path d="m80.805 55.945c0-2.7734-2.2578-5.0273-5.0234-5.0273h-0.89844c-0.71484 0-1.4141 0.14844-2.0742 0.44531l-0.86719 0.39062-0.52734-1.9844c-1.3008-4.8828-5.7344-8.2891-10.785-8.2891h-21.266c-5.0508 0-9.4844 3.4102-10.785 8.2891l-0.52734 1.9844-0.86719-0.39062c-0.65625-0.29688-1.3555-0.44531-2.0703-0.44531h-0.89844c-2.7734 0-5.0234 2.2578-5.0234 5.0273 0 2.7734 2.2578 5.0234 5.0234 5.0234h0.60547l-3.8711 4.7031c-1.1328 1.3789-1.7578 3.1172-1.7578 4.8984v16.289c0 2.5117 2.043 4.5547 4.5547 4.5547h5.9531c2.5117 0 4.5547-2.043 4.5547-4.5547v-2.7227h31.484v2.7227c0 2.5117 2.043 4.5547 4.5547 4.5547h5.9531c2.5117 0 4.5547-2.043 4.5547-4.5547v-16.289c0-1.7812-0.625-3.5234-1.7578-4.8984l-3.875-4.7031h0.60547c2.7734 0 5.0234-2.2578 5.0234-5.0234zm-6.6094-1.5078c0.21875-0.097656 0.44922-0.14844 0.6875-0.14844h0.89844c0.91406 0 1.6562 0.74219 1.6562 1.6602 0 0.91406-0.74219 1.6562-1.6562 1.6562h-2.2773l-0.67969-2.5469zm-51.633 1.5078c0-0.91406 0.74219-1.6602 1.6562-1.6602h0.89844c0.23828 0 0.46875 0.054688 0.68359 0.14844l1.375 0.62109-0.67969 2.543h-2.2773c-0.91406 0-1.6562-0.74219-1.6562-1.6562zm8.3242 30.922c0 0.65625-0.53125 1.1875-1.1836 1.1875h-5.9531c-0.65234 0-1.1836-0.53125-1.1836-1.1875v-2.7227h8.3242v2.7227zm13.191-6.207 0.64844-2.0508c0.14453-0.45312 0.55859-0.75391 1.0352-0.75391h7.0352c0.47656 0 0.89062 0.30469 1.0352 0.75391l0.65234 2.0508h-10.41zm33.355 6.207c0 0.65625-0.53125 1.1875-1.1836 1.1875h-5.9531c-0.65234 0-1.1836-0.53125-1.1836-1.1875v-2.7227h8.3242v2.7227zm0-16.289v10.199h-19.375l-1.0156-3.1875c-0.58984-1.8555-2.2969-3.1016-4.2422-3.1016h-7.0352c-1.9492 0-3.6523 1.2461-4.2422 3.1016l-1.0117 3.1875-17.945-0.003906v-10.199c0-1.0039 0.35156-1.9844 0.99219-2.7578l4.543-5.5195c0.62891-0.76172 1.0742-1.6328 1.3242-2.5781l2.4141-9.082c0.90625-3.4062 4.0039-5.7891 7.5273-5.7891h21.266c3.5234 0 6.6211 2.3828 7.5273 5.7891l2.4141 9.082c0.25391 0.94531 0.69922 1.8164 1.3281 2.582l4.5391 5.5156c0.64062 0.77344 0.99219 1.7578 0.99219 2.7578z"/>
 <path d="m29.367 68.691h7.0547c0.77344 0 1.4023 0.77344 1.4023 1.4023v3.1289c0 0.77344-0.62891 1.4023-1.4023 1.4023h-7.0547c-0.77344 0-1.4023-0.77344-1.4023-1.4023v-3.1289c0-0.77344 0.62891-1.4023 1.4023-1.4023z"/>
 <path d="m62.801 68.691h7.0547c0.77344 0 1.4023 0.77344 1.4023 1.4023v3.1289c0 0.77344-0.62891 1.4023-1.4023 1.4023h-7.0547c-0.77344 0-1.4023-0.77344-1.4023-1.4023v-3.1289c0-0.77344 0.62891-1.4023 1.4023-1.4023z"/>
 <path d="m34.59 62.652h30.82l1.5 3 3.0117-1.5078-1.875-3.75-1.9453-8.3516c-0.69531-3-3.3359-5.0977-6.4219-5.0977h-19.359c-3.082 0-5.7266 2.0977-6.4219 5.0977l-1.9453 8.3516-1.875 3.75 3.0117 1.5078zm2.5898-9.8477c0.33984-1.4688 1.6328-2.4922 3.1406-2.4922h19.359c1.5078 0 2.8008 1.0234 3.1406 2.4922l1.5078 6.4766-28.656 0.003906 1.5078-6.4766z"/>
 <path d="m53.133 67.965h-7.0859l-3.4375-3.4375-2.3828 2.3828 4.4258 4.4258h10.078l3.7188-4.5508-2.6055-2.1328z"/>
 <path d="m17.441 42.031c0-3.3203-2.6992-6.0234-6.0234-6.0234h-2.8047v3.3672h2.8047c1.4609 0 2.6523 1.1914 2.6523 2.6523 0 1.4609-1.1914 2.6523-2.6523 2.6523h-2.8047v3.3672h2.8047c1.4609 0 2.6523 1.1914 2.6523 2.6523 0 1.4609-1.1914 2.6523-2.6523 2.6523h-2.8047v3.3672h2.8047c1.4609 0 2.6523 1.1914 2.6523 2.6523 0 1.4609-1.1914 2.6523-2.6523 2.6523h-2.8047v3.3672h2.8047c1.4609 0 2.6523 1.1914 2.6523 2.6523 0 1.4609-1.1914 2.6523-2.6523 2.6523h-2.8047v3.3672h2.8047c1.4609 0 2.6523 1.1914 2.6523 2.6523 0 1.4609-1.1914 2.6562-2.6523 2.6562h-2.8047v3.3672h2.8047c1.4609 0 2.6523 1.1914 2.6523 2.6523s-1.1914 2.6523-2.6523 2.6523h-2.8047v3.3672h2.8047c3.3203 0 6.0234-2.6992 6.0234-6.0234 0-1.707-0.72266-3.2422-1.8672-4.3359 1.1445-1.0977 1.8672-2.6328 1.8672-4.3359 0-1.707-0.71875-3.2422-1.8633-4.3359 1.1445-1.0977 1.8633-2.6328 1.8633-4.3359 0-1.707-0.71875-3.2422-1.8633-4.3359 1.1445-1.0977 1.8633-2.6328 1.8633-4.3359 0-1.707-0.71875-3.2422-1.8633-4.3359 1.1445-1.0977 1.8633-2.6328 1.8633-4.3359 0-1.707-0.71875-3.2422-1.8633-4.3359 1.1445-1.0977 1.8633-2.6328 1.8633-4.3359z"/>
 <path d="m82.559 42.031c0 1.707 0.71875 3.2422 1.8633 4.3359-1.1445 1.0977-1.8633 2.6328-1.8633 4.3359 0 1.707 0.71875 3.2422 1.8633 4.3359-1.1445 1.0977-1.8633 2.6328-1.8633 4.3359 0 1.707 0.71875 3.2422 1.8633 4.3359-1.1445 1.0977-1.8633 2.6328-1.8633 4.3359 0 1.707 0.71875 3.2422 1.8633 4.3359-1.1445 1.0977-1.8633 2.6328-1.8633 4.3359 0 1.707 0.72266 3.2422 1.8672 4.3359-1.1445 1.0977-1.8672 2.6328-1.8672 4.3359 0 3.3203 2.6992 6.0234 6.0234 6.0234h2.8047v-3.3672h-2.8047c-1.4609 0-2.6523-1.1914-2.6523-2.6523 0-1.4609 1.1914-2.6523 2.6523-2.6523h2.8047v-3.3672h-2.8047c-1.4609 0-2.6523-1.1914-2.6523-2.6562s1.1914-2.6523 2.6523-2.6523h2.8047v-3.3672h-2.8047c-1.4609 0-2.6523-1.1914-2.6523-2.6523s1.1914-2.6523 2.6523-2.6523h2.8047v-3.3672h-2.8047c-1.4609 0-2.6523-1.1914-2.6523-2.6523s1.1914-2.6523 2.6523-2.6523h2.8047v-3.3672h-2.8047c-1.4609 0-2.6523-1.1914-2.6523-2.6523s1.1914-2.6523 2.6523-2.6523h2.8047v-3.3672h-2.8047c-1.4609 0-2.6523-1.1914-2.6523-2.6523s1.1914-2.6523 2.6523-2.6523h2.8047v-3.3672h-2.8047c-3.3203 0-6.0234 2.6992-6.0234 6.0234z"/>
 <path d="m86.273 14.777h-3.9648c-1.0234-3.5664-4.2734-6.1992-8.1641-6.1992h-48.293c-3.8906 0-7.1445 2.6328-8.1641 6.1992h-3.9648c-3.8359 0-6.957 3.1172-6.957 6.9531v9.7109h3.3672v-9.7109c0-1.9766 1.6094-3.5859 3.5859-3.5859h3.6016v5.9414h65.359v-5.9414h3.6016c1.9766 0 3.5859 1.6094 3.5859 3.5859v9.7109h3.3672v-9.7109c0-3.8359-3.1211-6.9531-6.957-6.9531zm-6.9688 5.9414h-58.609v-3.6094c0-2.8477 2.3164-5.1641 5.1641-5.1641h48.289c2.8477 0 5.1641 2.3164 5.1641 5.1641v3.6094z"/>
<text fill="#000000" font-family="Arbeit Regular, Helvetica, Arial-Unicode, Arial, Sans-serif" font-weight="bold" font-size="5.0" y="117.5" x="0.0">Created by IGraphics</text><text fill="#000000" font-family="Arbeit Regular, Helvetica, Arial-Unicode, Arial, Sans-serif" font-weight="bold" font-size="5.0" y="122.5" x="0.0">from Noun Project</text></svg>